<svg width="2341" height="449" viewBox="0 0 2341 449" fill="none" xmlns="http://www.w3.org/2000/svg">
<path d="M378.639 0.00390625V361.9H338.247V0.00390625H378.639Z" fill="black"/>
<path d="M1947.01 98.3215V138.713H1946.19C1889.89 129.737 1851.13 168.905 1851.13 224.394V361.89H1810.74V103.625H1851.13L1841.75 141.161L1849.5 144.425C1869.49 109.745 1886.22 96.6895 1923.35 96.6895C1933.14 96.6895 1940.07 97.0975 1947.01 98.3215Z" fill="black"/>
<path d="M2009.38 0V214.608L2127.7 103.632H2178.29L2077.51 199.104L2188.9 361.488H2140.75L2049.36 222.768L2009.38 259.896V361.488H1968.99V0H2009.38Z" fill="black"/>
<path d="M1451.3 96.6953C1412.54 96.6953 1385.62 117.095 1367.66 141.167H1366.85C1356.24 112.199 1335.02 96.6953 1297.9 96.6953C1259.54 96.6953 1241.18 108.935 1224.05 138.311L1220.78 144.431L1213.03 141.167L1222.42 103.631H1182.02V361.487H1222.42V200.735C1222.42 160.751 1247.71 131.783 1288.1 131.783C1328.5 131.783 1335.02 157.895 1335.02 191.351V361.487H1375.42V200.735C1375.42 160.751 1400.71 131.783 1441.1 131.783C1481.5 131.783 1488.02 157.895 1488.02 191.351V361.487H1528.42V181.559C1528.82 127.703 1503.53 96.6953 1451.3 96.6953Z" fill="black"/>
<path d="M813.145 96.7014C769.081 96.7014 745.825 109.757 728.281 139.949L725.833 144.437L718.081 141.173L727.465 103.637V0.00537109H687.073V361.901H727.465V200.741C727.465 160.757 757.657 131.789 803.353 131.789C843.745 131.789 859.657 157.901 859.657 191.357V361.493H900.049V181.565C899.641 122.405 860.473 96.7014 813.145 96.7014Z" fill="black"/>
<path d="M1137.1 303.551V178.295C1137.1 115.871 1093.04 96.6948 1044.08 96.6948C969.009 96.6948 938.409 134.231 935.961 183.599H976.353C978.801 146.063 995.121 132.191 1044.08 132.191C1085.7 132.191 1096.71 149.327 1096.71 169.727C1096.71 195.431 1077.13 201.143 1033.47 209.303C966.561 221.951 923.313 237.047 923.313 295.799C923.313 339.455 956.361 369.239 1008.18 369.239C1050.2 369.239 1077.54 355.367 1095.08 325.583L1097.94 320.279L1105.69 323.543C1098.75 352.103 1118.34 364.751 1142.41 364.751C1150.16 364.751 1155.46 364.343 1166.07 360.671V332.519C1140.78 334.967 1137.1 323.951 1137.1 303.551ZM1096.71 261.935C1096.71 311.711 1060.4 333.335 1012.26 333.335C978.801 333.335 963.705 318.647 963.705 293.351C963.705 262.343 986.961 249.695 1037.14 239.087C1064.48 233.375 1089.37 226.439 1096.71 218.687V261.935Z" fill="black"/>
<path d="M1765.88 303.551V178.295C1765.88 115.871 1721.82 96.6948 1672.86 96.6948C1597.79 96.6948 1567.19 134.231 1564.74 183.599H1605.13C1607.58 146.063 1623.9 132.191 1672.86 132.191C1714.47 132.191 1725.49 149.327 1725.49 169.727C1725.49 195.431 1705.91 201.143 1662.25 209.303C1595.34 221.951 1552.09 237.047 1552.09 295.799C1552.09 339.455 1585.14 369.239 1636.95 369.239C1678.98 369.239 1706.31 355.367 1723.86 325.583L1726.71 320.279L1734.47 323.543C1727.53 352.103 1747.11 364.751 1771.19 364.751C1778.94 364.751 1784.24 364.343 1794.85 360.671V332.519C1769.55 334.967 1765.88 323.951 1765.88 303.551ZM1725.49 261.935C1725.49 311.711 1689.18 333.335 1641.03 333.335C1607.58 333.335 1592.48 318.647 1592.48 293.351C1592.48 262.343 1615.74 249.695 1665.92 239.087C1693.26 233.375 1718.15 226.439 1725.49 218.687V261.935V261.935Z" fill="black"/>
<path d="M544.243 96.6948C501.811 96.6948 479.779 109.751 462.235 139.943L459.787 144.023L452.035 140.759L461.419 103.223H421.027V448.799H461.419V356.999L452.035 323.135L459.787 319.871L465.499 329.255C483.043 355.775 504.259 368.831 544.243 368.831C607.891 368.831 659.707 317.831 659.707 232.559C659.299 147.695 607.891 96.6948 544.243 96.6948ZM538.939 333.335C490.795 333.335 461.011 293.351 461.011 232.559C461.011 171.767 490.795 131.783 538.939 131.783C591.979 131.783 618.907 181.967 618.907 232.559C618.907 283.151 591.979 333.335 538.939 333.335Z" fill="black"/>
<path d="M2214.36 11.0655H2188.92V0.00439453H2253.07V11.0655H2227.63V79.0914H2214.36V11.0655Z" fill="black"/>
<path d="M2261.9 0.000488281H2279.05L2301.17 60.8367L2323.29 0.000488281H2340.43V79.6406H2327.71V19.3575L2306.7 79.6406H2296.19L2275.17 19.3575V79.6406H2262.45V0.000488281H2261.9Z" fill="black"/>
<path d="M319.872 361.907L185.64 0.0107422H134.64L0 361.907H47.328L79.56 271.331H240.312L272.544 361.907H319.872ZM95.064 230.939L150.552 69.3708L156.264 29.7948H164.832L170.544 69.3708L226.032 230.939H95.064Z" fill="black"/>
</svg>
